<?xml version="1.0" encoding="utf-8"?>
<!-- Generator: Adobe Illustrator 16.0.4, SVG Export Plug-In . SVG Version: 6.00 Build 0)  -->
<!DOCTYPE svg PUBLIC "-//W3C//DTD SVG 1.1//EN" "http://www.w3.org/Graphics/SVG/1.1/DTD/svg11.dtd">
<svg version="1.1" id="Layer_1" xmlns="http://www.w3.org/2000/svg" xmlns:xlink="http://www.w3.org/1999/xlink" x="0px" y="0px"
	 width="48px" height="44px" viewBox="0 0 48 44" enable-background="new 0 0 48 44" xml:space="preserve">
<g>
	<path fill="#E4003B" d="M27.082,4.311c9.124,0,16.502,7.374,16.502,16.499c0,9.125-7.398,16.521-16.521,16.521
		c0,0-2.819-0.006-4.245-0.005c-2.439,0-4.885,0-7.335,0c-0.2,0.011-1.454-0.001-1.344-0.012c-5.23-0.379-9.358-4.735-9.358-10.066
		h0.006c0-1.794,1.455-3.249,3.249-3.249c1.793,0,3.248,1.455,3.248,3.249c0,0.006-0.003,0.012-0.003,0.019
		c0.011,1.978,1.616,3.579,3.597,3.579c1.985,0,3.597-1.611,3.597-3.598c0-1.886-1.454-3.426-3.298-3.58
		c-0.021,0.001-0.04,0.004-0.059,0.004c-1.574,0-2.851-1.277-2.851-2.852c0-1.574,1.277-2.851,2.851-2.851
		c0.01,0,0.019,0.002,0.029,0.002c1.86-0.138,3.328-1.687,3.328-3.582c0-1.986-1.612-3.596-3.597-3.596
		c-1.975,0-3.575,1.59-3.594,3.56c0,1.794-1.455,3.248-3.248,3.248c-1.782,0-3.227-1.435-3.247-3.212H4.78
		c0-5.329,4.131-9.693,9.366-10.069c-0.031-0.002,0.051-0.009,0.123-0.009c0.201-0.012,0.404-0.02,0.608-0.02
		s0.408,0.008,0.609,0.02h9.576H27.082 M29.962,14.33c0-1.944-1.575-3.521-3.52-3.521c-1.944,0-3.522,1.577-3.522,3.521
		c0,1.944,1.578,3.52,3.522,3.52C28.387,17.85,29.962,16.274,29.962,14.33 M29.964,22.621h-0.002c0-1.688-1.576-3.055-3.52-3.055
		c-1.946,0-3.522,1.367-3.522,3.055h-0.002v5.467h0.022c0.182,1.539,1.68,2.738,3.502,2.738c1.821,0,3.318-1.199,3.501-2.738h0.021
		V22.621z"/>
</g>
</svg>
